<?xml version="1.0" standalone="no"?>
<!DOCTYPE svg PUBLIC "-//W3C//DTD SVG 20010904//EN"
 "http://www.w3.org/TR/2001/REC-SVG-20010904/DTD/svg10.dtd">
<svg version="1.0" xmlns="http://www.w3.org/2000/svg"
 width="300.000000pt" height="53.000000pt" viewBox="0 0 300.000000 53.000000"
 preserveAspectRatio="xMidYMid meet">
<metadata>
Created by potrace 1.10, written by Peter Selinger 2001-2011
</metadata>
<g transform="translate(0.000000,53.000000) scale(0.100000,-0.100000)"
fill="#000000" stroke="none">
<path d="M173 502 c-9 -6 -3 -33 25 -105 20 -53 39 -97 42 -97 6 0 73 181 68
184 -28 24 -109 35 -135 18z m100 -31 c9 -9 -20 -101 -32 -101 -9 0 -50 104
-44 114 6 9 63 0 76 -13z"/>
<path d="M410 502 c-58 -26 -60 -31 -60 -134 0 -54 4 -98 9 -98 5 0 28 -29 51
-65 l42 -65 37 57 c33 52 35 59 21 73 -13 14 -18 14 -48 -1 -37 -20 -68 -15
-83 12 -17 32 10 70 69 98 46 23 52 29 52 57 0 17 -6 37 -14 43 -19 16 -66 -3
-66 -28 0 -24 -27 -48 -41 -34 -25 25 43 83 98 83 51 0 63 -25 63 -128 0 -51
4 -92 8 -92 16 0 42 36 48 67 15 77 -53 164 -129 162 -23 0 -49 -3 -57 -7z
m70 -67 c0 -7 -13 -20 -30 -29 -33 -16 -35 -14 -19 17 20 37 49 45 49 12z m87
-67 c-3 -7 -5 -2 -5 12 0 14 2 19 5 13 2 -7 2 -19 0 -25z m-93 -152 c-17 -27
-33 -34 -35 -16 -5 28 -2 33 16 36 11 2 22 9 24 16 3 9 5 10 8 1 2 -6 -3 -23
-13 -37z"/>
<path d="M730 259 c0 -164 3 -248 10 -244 6 4 10 98 10 251 0 156 -4 244 -10
244 -6 0 -10 -90 -10 -251z"/>
<path d="M112 458 c-33 -41 -32 -128 3 -173 13 -18 14 -10 15 83 0 56 -2 102
-4 102 -2 0 -8 -6 -14 -12z"/>
<path d="M150 363 c0 -86 -3 -103 -16 -103 -8 0 -24 -19 -35 -45 -24 -55 -18
-105 20 -147 l26 -29 -3 103 c-3 82 -1 107 11 116 12 10 26 -6 83 -92 38 -58
71 -105 74 -105 3 -1 3 47 2 105 -3 75 -1 104 7 100 8 -5 11 24 11 96 l-1 103
-38 -100 c-22 -57 -44 -100 -51 -100 -8 0 -30 43 -51 100 l-38 100 -1 -102z
m151 -87 c-6 -8 -12 -41 -12 -75 -1 -33 -3 -61 -5 -61 -1 0 -19 24 -38 54 -36
53 -47 81 -24 58 19 -19 32 -14 57 26 14 21 26 31 29 24 2 -7 -1 -19 -7 -26z
m-103 5 c3 -8 -1 -12 -9 -9 -7 2 -15 10 -17 17 -3 8 1 12 9 9 7 -2 15 -10 17
-17z"/>
<path d="M840 365 c0 -74 19 -91 21 -17 l1 47 16 -47 c8 -27 19 -48 23 -48 4
0 13 24 21 53 l13 52 6 -55 6 -55 1 68 c1 37 -2 67 -7 67 -4 0 -14 -20 -21
-45 -7 -25 -16 -47 -20 -50 -3 -2 -12 18 -19 45 -19 75 -41 67 -41 -15z"/>
<path d="M1012 379 c-1 -32 3 -60 10 -67 18 -18 46 -14 58 7 13 25 13 111 0
111 -5 0 -10 -24 -10 -54 0 -92 -46 -85 -53 7 l-3 52 -2 -56z"/>
<path d="M1147 423 c-14 -14 -6 -40 19 -62 21 -18 23 -25 13 -37 -7 -8 -18
-13 -26 -10 -7 3 -13 1 -13 -4 0 -14 34 -12 48 2 18 18 15 35 -14 62 -27 24
-25 52 2 42 8 -3 14 -1 14 4 0 11 -33 14 -43 3z"/>
<path d="M1250 365 l0 -65 30 0 c17 0 30 4 30 10 0 5 -10 9 -22 7 -17 -1 -24
4 -26 21 -3 18 1 22 23 22 15 0 24 4 20 10 -3 6 -15 10 -26 10 -32 0 -24 38 9
43 25 4 25 4 -5 6 l-33 1 0 -65z"/>
<path d="M1362 374 c3 -64 23 -88 56 -68 20 13 31 124 12 124 -6 0 -10 -23
-10 -54 0 -31 -5 -58 -12 -62 -19 -12 -40 28 -36 74 2 23 0 42 -5 42 -4 0 -7
-25 -5 -56z"/>
<path d="M1490 365 c0 -74 19 -90 21 -17 l1 47 15 -47 c8 -27 18 -48 22 -48 4
0 14 24 22 53 l14 52 6 -55 6 -55 1 68 c2 76 -11 88 -29 25 -18 -63 -24 -64
-38 -8 -19 75 -41 67 -41 -15z"/>
<path d="M1747 423 c-13 -24 -38 -115 -33 -121 4 -3 9 4 13 16 7 29 49 30 58
2 3 -11 10 -20 15 -20 4 0 -1 29 -13 65 -20 61 -30 75 -40 58z m16 -71 c-20
-5 -22 -1 -15 33 l5 30 13 -30 c10 -25 10 -31 -3 -33z"/>
<path d="M1850 415 c-11 -13 -8 -20 15 -45 33 -34 29 -65 -7 -55 -18 6 -20 4
-12 -5 15 -16 44 -10 58 12 8 14 5 23 -18 47 -28 29 -28 58 0 47 8 -3 14 -1
14 4 0 16 -36 12 -50 -5z"/>
<path d="M1957 423 c-15 -14 -6 -42 20 -61 31 -23 26 -58 -7 -47 -12 4 -20 2
-20 -5 0 -6 12 -10 28 -8 36 4 44 50 13 70 -28 17 -29 52 -1 45 11 -3 20 -1
20 4 0 10 -43 12 -53 2z"/>
<path d="M2072 418 c-15 -15 -16 -72 -2 -99 6 -11 21 -19 35 -19 27 0 45 25
45 65 0 55 -45 86 -78 53z m59 -22 c15 -32 -1 -81 -26 -81 -25 0 -41 49 -26
81 6 13 18 24 26 24 8 0 20 -11 26 -24z"/>
<path d="M2210 411 c-15 -29 -12 -77 6 -95 17 -18 64 -22 64 -5 0 6 -8 8 -19
4 -24 -7 -51 19 -51 50 0 30 28 58 51 52 11 -3 19 -1 19 4 0 18 -59 9 -70 -10z"/>
<path d="M2333 365 c0 -38 2 -53 4 -32 2 20 2 52 0 70 -2 17 -4 1 -4 -38z"/>
<path d="M2427 423 c-13 -24 -38 -115 -33 -121 4 -3 9 4 13 16 7 29 49 30 58
2 3 -11 10 -20 14 -20 4 0 -2 29 -13 65 -20 61 -29 75 -39 58z m22 -60 c1 -7
-6 -13 -14 -13 -17 0 -18 4 -8 39 6 23 7 23 14 5 4 -10 8 -25 8 -31z"/>
<path d="M2522 423 c13 -3 18 -18 21 -66 l3 -62 2 62 c2 49 5 62 20 66 9 3 -1
5 -23 5 -22 0 -32 -2 -23 -5z"/>
<path d="M2633 365 c0 -38 2 -53 4 -32 2 20 2 52 0 70 -2 17 -4 1 -4 -38z"/>
<path d="M2699 406 c-18 -39 -3 -95 27 -102 14 -4 31 -1 39 6 18 15 20 91 3
108 -21 21 -57 14 -69 -12z m59 2 c17 -17 15 -73 -3 -88 -23 -19 -45 5 -45 50
0 50 20 66 48 38z"/>
<path d="M2830 365 c0 -37 4 -65 10 -65 6 0 10 24 10 53 l0 52 25 -52 c13 -29
29 -53 35 -53 6 0 10 26 10 65 0 37 -4 65 -10 65 -5 0 -10 -21 -10 -47 l-1
-48 -25 48 c-13 26 -29 47 -34 47 -6 0 -10 -29 -10 -65z"/>
<path d="M458 370 c-44 -23 -51 -34 -43 -59 8 -26 30 -33 60 -19 21 9 25 18
25 55 0 23 -1 43 -2 43 -2 -1 -20 -10 -40 -20z m4 -51 c-23 -9 -27 -3 -12 16
11 13 15 13 21 3 5 -8 2 -15 -9 -19z"/>
<path d="M340 173 c1 -92 6 -106 50 -136 41 -28 50 -22 50 33 0 43 -7 60 -46
120 -26 39 -49 70 -50 70 -2 0 -4 -39 -4 -87z m54 -24 c21 -31 26 -47 21 -71
l-7 -30 -24 23 c-19 18 -24 33 -24 71 0 26 2 48 4 48 2 0 15 -18 30 -41z"/>
<path d="M508 187 c-40 -62 -48 -81 -48 -121 l0 -48 32 6 c58 11 108 76 108
138 0 26 -31 98 -42 98 -2 0 -24 -33 -50 -73z m62 -1 c17 -45 -28 -136 -67
-136 -26 0 -15 67 19 115 17 25 33 45 35 45 2 0 8 -11 13 -24z"/>
<path d="M170 123 l5 -98 40 -3 c23 -2 50 1 62 5 21 8 19 12 -40 100 -34 51
-64 92 -67 93 -3 0 -3 -44 0 -97z m60 -27 c16 -25 30 -47 30 -51 0 -3 -15 -5
-32 -3 -32 3 -33 5 -36 51 -2 26 -1 47 2 47 3 0 19 -20 36 -44z"/>
<path d="M852 188 c-16 -16 -16 -90 0 -106 33 -33 78 -2 78 53 0 55 -45 86
-78 53z m53 -53 c0 -43 -3 -50 -20 -50 -27 0 -42 46 -27 80 8 17 19 25 30 23
13 -3 17 -14 17 -53z"/>
<path d="M980 135 c0 -36 4 -65 8 -65 5 0 7 13 4 30 -4 25 -1 30 17 30 11 0
21 5 21 10 0 6 -8 10 -17 8 -12 -2 -19 4 -21 19 -3 17 3 22 25 26 27 4 27 4
-4 6 l-33 1 0 -65z"/>
<path d="M1158 135 c-1 -36 0 -65 5 -65 4 0 7 24 8 53 l0 52 24 -52 c13 -29
29 -53 34 -53 7 0 11 26 11 65 0 42 -4 65 -11 65 -8 0 -10 -17 -7 -50 6 -59
-3 -57 -26 5 -10 25 -21 45 -26 45 -5 0 -10 -29 -12 -65z"/>
<path d="M1290 135 l0 -65 30 0 c17 0 30 4 30 9 0 5 -9 7 -20 4 -16 -4 -20 0
-20 21 0 19 5 26 20 26 11 0 20 5 20 11 0 6 -9 9 -20 6 -16 -4 -20 0 -20 18 0
17 7 25 23 28 16 3 13 5 -10 6 l-33 1 0 -65z"/>
<path d="M1394 183 c6 -22 12 -50 20 -85 9 -42 24 -34 32 17 9 63 21 64 29 5
7 -53 24 -62 35 -19 16 57 21 101 12 95 -5 -3 -13 -27 -17 -53 -7 -42 -9 -45
-15 -23 -5 14 -11 37 -14 53 -9 38 -24 34 -32 -10 -11 -64 -21 -69 -28 -14 -4
28 -11 51 -17 51 -6 0 -8 -8 -5 -17z"/>
<path d="M1646 165 c7 -19 14 -48 14 -65 0 -16 5 -30 10 -30 6 0 10 14 10 30
0 17 7 46 14 65 8 19 11 35 6 35 -5 0 -12 -11 -16 -25 -3 -14 -10 -25 -14 -25
-4 0 -11 11 -14 25 -4 14 -11 25 -16 25 -5 0 -2 -16 6 -35z"/>
<path d="M1760 185 c-18 -21 -18 -78 -1 -99 36 -44 91 9 75 72 -7 29 -14 38
-35 40 -15 2 -31 -4 -39 -13z m48 -7 c17 -17 15 -73 -3 -88 -34 -28 -65 56
-33 88 15 15 21 15 36 0z"/>
<path d="M1892 133 c0 -37 3 -53 5 -35 5 41 29 42 38 2 4 -17 11 -30 16 -30
12 0 11 6 -6 40 -10 19 -12 30 -5 30 6 0 10 12 8 28 -2 21 -9 28 -30 30 l-28
3 2 -68z m43 32 c0 -11 -8 -21 -17 -23 -14 -3 -18 3 -18 23 0 20 4 26 18 23 9
-2 17 -12 17 -23z"/>
<path d="M2013 135 c0 -38 2 -57 4 -40 3 16 18 46 35 67 16 21 25 38 20 38 -5
0 -18 -12 -28 -27 l-18 -28 -7 30 c-4 20 -7 6 -6 -40z"/>
<path d="M2030 124 c1 -16 39 -56 50 -52 6 2 -3 16 -20 33 -16 16 -30 25 -30
19z"/>
</g>
</svg>
